<svg width="389" height="397" viewBox="0 0 389 397" fill="none" xmlns="http://www.w3.org/2000/svg">
<ellipse cx="191.285" cy="364.707" rx="191.285" ry="31.9371" fill="#AEC1E6"/>
<path d="M218.371 21.6794C218.371 33.1349 209.084 42.4213 197.629 42.4213C186.173 42.4213 176.887 33.1349 176.887 21.6794C176.887 10.224 186.173 0.9375 197.629 0.9375C209.084 0.9375 218.371 10.224 218.371 21.6794Z" fill="#FFA7A7"/>
<path d="M218.371 21.6794C218.371 33.1349 209.084 42.4213 197.629 42.4213C186.173 42.4213 176.887 33.1349 176.887 21.6794C176.887 10.224 186.173 0.9375 197.629 0.9375C209.084 0.9375 218.371 10.224 218.371 21.6794Z" fill="#B5551F"/>
<path d="M31.4239 318.866C31.4239 327.544 24.3894 334.578 15.7119 334.578C7.03448 334.578 0 327.544 0 318.866C0 310.189 7.03448 303.155 15.7119 303.155C24.3894 303.155 31.4239 310.189 31.4239 318.866Z" fill="#FFA7A7"/>
<path d="M31.4239 318.866C31.4239 327.544 24.3894 334.578 15.7119 334.578C7.03448 334.578 0 327.544 0 318.866C0 310.189 7.03448 303.155 15.7119 303.155C24.3894 303.155 31.4239 310.189 31.4239 318.866Z" fill="#B5551F"/>
<path d="M283.591 186.934C281.783 160.071 245.816 139.15 228.059 132.047V202.108C247.323 208.243 285.399 213.796 283.591 186.934Z" fill="#B5551F"/>
<path d="M78.8969 63.2968C94.1672 12.905 125.029 0.52876 160.974 3.48825C229.054 13.3878 222.788 81.6209 226.605 109.616C229.66 132.013 250.6 182.977 264.174 213.093C353.886 218.698 316.203 326.046 325.838 326.046C346.408 326.046 353.5 337.572 351.195 348.521C349.351 357.281 298.692 354.237 273.592 351.62C286.146 361.17 285.137 376.973 273.592 376.973C164.493 376.973 183.243 369.338 173.063 369.338C162.883 369.338 103.075 401.787 38.1761 344.524C-26.7224 287.26 8.27182 214.727 19.7245 193.73C31.1772 172.733 59.8089 126.286 78.8969 63.2968Z" fill="#CD7434"/>
<path d="M238.476 178.5C226.899 162.709 186.855 119.833 135.235 192.879C101.395 313.665 185.135 333.796 244.785 314.815C304.435 295.834 256.733 203.404 238.476 178.5Z" fill="#E7C9A8"/>
<path d="M173.063 369.338C162.883 369.338 103.074 401.787 38.1758 344.524C54.3018 314.195 103.538 187.432 183.879 253.539C256.284 250.458 251.189 311.615 249.204 335.327L249.201 335.351C248.728 341.005 248.434 344.524 249.414 344.524C260.18 344.524 268.157 347.486 273.592 351.62C286.146 361.17 285.137 376.973 273.592 376.973C164.492 376.973 183.243 369.338 173.063 369.338Z" fill="#CD7434"/>
<path d="M249.414 344.524C260.179 344.524 268.157 347.486 273.592 351.62C298.691 354.237 349.35 357.281 351.194 348.521C353.499 337.572 346.407 326.046 325.837 326.046C316.202 326.046 353.886 218.698 264.173 213.093C273.99 235.173 303.031 297.286 249.203 335.327L249.201 335.351C248.728 341.005 248.433 344.524 249.414 344.524Z" fill="#B5551F"/>
<path fill-rule="evenodd" clip-rule="evenodd" d="M250.317 335.369L250.313 335.42C250.074 338.274 249.886 340.521 249.876 342.058C249.87 342.84 249.913 343.341 249.981 343.618C250 343.695 250.014 343.726 250.014 343.726C250.014 343.726 250.004 343.704 249.977 343.671C249.887 343.557 249.686 343.41 249.414 343.41V345.637C248.897 345.637 248.49 345.38 248.23 345.051C248.003 344.763 247.887 344.426 247.819 344.149C247.681 343.587 247.644 342.852 247.65 342.043C247.661 340.414 247.855 338.09 248.088 335.311L248.094 335.234C249.09 323.339 250.818 302.395 243.412 284.817C239.725 276.066 233.781 268.173 224.348 262.644C214.906 257.108 201.875 253.886 183.927 254.65L183.832 252.426C202.086 251.649 215.57 254.917 225.474 260.723C235.388 266.535 241.622 274.836 245.464 283.953C253.104 302.085 251.307 323.541 250.317 335.369Z" fill="#B5551F"/>
<path d="M152.758 93.4946C152.758 82.2229 165.378 67.9391 172.896 66.3891C195.231 61.784 204.523 94.0673 195.348 97.5772C179.438 106.356 152.757 109.924 152.758 93.4946Z" fill="#E8CBAB"/>
<path d="M187.292 75.6389C187.292 76.7462 187.074 77.8427 186.65 78.8657C186.226 79.8887 185.605 80.8182 184.822 81.6012C184.039 82.3842 183.109 83.0053 182.086 83.429C181.063 83.8528 179.967 84.0709 178.86 84.0709C177.752 84.0709 176.656 83.8528 175.633 83.429C174.61 83.0053 173.68 82.3842 172.897 81.6012C172.114 80.8182 171.493 79.8887 171.07 78.8657C170.646 77.8427 170.428 76.7462 170.428 75.6389L178.86 75.6389H187.292Z" fill="black"/>
<path fill-rule="evenodd" clip-rule="evenodd" d="M180.14 77.4648L180.137 93.8735L177.58 93.873L177.583 77.4643L180.14 77.4648Z" fill="black"/>
<path d="M191.945 91.1069L184.289 93.2068C185.822 99.164 192.348 106.402 196.624 101.742C199.298 98.8277 196.257 93.4594 191.945 91.1069Z" fill="#9B2C2C"/>
<path fill-rule="evenodd" clip-rule="evenodd" d="M194.412 91.0902L164.311 98.6656L163.688 96.1863L193.788 88.6108L194.412 91.0902Z" fill="black"/>
<path d="M145.312 83.2816C145.312 89.0012 140.676 93.6379 134.956 93.6379C129.236 93.6379 124.6 89.0012 124.6 83.2816C124.6 77.562 129.236 72.9253 134.956 72.9253C140.676 72.9253 145.312 77.562 145.312 83.2816Z" fill="#FFA7A7"/>
<path d="M145.312 83.2816C145.312 89.0012 140.676 93.6379 134.956 93.6379C129.236 93.6379 124.6 89.0012 124.6 83.2816C124.6 77.562 129.236 72.9253 134.956 72.9253C140.676 72.9253 145.312 77.562 145.312 83.2816Z" fill="#EE8C8C"/>
<path d="M145.312 83.2816C145.312 89.0012 140.676 93.6379 134.956 93.6379C129.236 93.6379 124.6 89.0012 124.6 83.2816C124.6 77.562 129.236 72.9253 134.956 72.9253C140.676 72.9253 145.312 77.562 145.312 83.2816Z" fill="#E68A6D"/>
<path d="M145.312 83.2816C145.312 89.0012 140.676 93.6379 134.956 93.6379C129.236 93.6379 124.6 89.0012 124.6 83.2816C124.6 77.562 129.236 72.9253 134.956 72.9253C140.676 72.9253 145.312 77.562 145.312 83.2816Z" fill="#E68A6D"/>
<path d="M219.568 78.2542C219.568 83.9739 214.931 88.6105 209.212 88.6105C203.492 88.6105 198.855 83.9739 198.855 78.2542C198.855 72.5346 203.492 67.8979 209.212 67.8979C214.931 67.8979 219.568 72.5346 219.568 78.2542Z" fill="#FFA7A7"/>
<path d="M219.568 78.2542C219.568 83.9739 214.931 88.6105 209.212 88.6105C203.492 88.6105 198.855 83.9739 198.855 78.2542C198.855 72.5346 203.492 67.8979 209.212 67.8979C214.931 67.8979 219.568 72.5346 219.568 78.2542Z" fill="#EE8C8C"/>
<path d="M219.568 78.2542C219.568 83.9739 214.931 88.6105 209.212 88.6105C203.492 88.6105 198.855 83.9739 198.855 78.2542C198.855 72.5346 203.492 67.8979 209.212 67.8979C214.931 67.8979 219.568 72.5346 219.568 78.2542Z" fill="#E68A6D"/>
<path d="M219.568 78.2542C219.568 83.9739 214.931 88.6105 209.212 88.6105C203.492 88.6105 198.855 83.9739 198.855 78.2542C198.855 72.5346 203.492 67.8979 209.212 67.8979C214.931 67.8979 219.568 72.5346 219.568 78.2542Z" fill="#E68A6D"/>
<path d="M139.169 72.5838C139.169 75.9765 141.919 78.7269 145.312 78.7269C148.705 78.7269 151.455 75.9765 151.455 72.5838C151.455 69.191 148.705 66.4407 145.312 66.4407C141.919 66.4407 139.169 69.191 139.169 72.5838Z" fill="black"/>
<path d="M192.71 68.3706C192.71 71.7634 195.46 74.5138 198.853 74.5138C202.246 74.5138 204.996 71.7634 204.996 68.3706C204.996 64.9779 202.246 62.2275 198.853 62.2275C195.46 62.2275 192.71 64.9779 192.71 68.3706Z" fill="black"/>
<path d="M102.701 51.2425C115.391 52.464 126.668 43.1674 127.889 30.478C129.111 17.7885 119.814 6.51153 107.125 5.29005C94.4352 4.06857 83.1582 13.3652 81.9368 26.0546C80.7153 38.744 90.0119 50.021 102.701 51.2425Z" fill="#FFA7A7"/>
<path d="M102.701 51.2425C115.391 52.464 126.668 43.1674 127.889 30.478C129.111 17.7885 119.814 6.51153 107.125 5.29005C94.4352 4.06857 83.1582 13.3652 81.9368 26.0546C80.7153 38.744 90.0119 50.021 102.701 51.2425Z" fill="#CD7434"/>
<path fill-rule="evenodd" clip-rule="evenodd" d="M83.6772 26.2223C84.8061 14.4945 95.2286 5.90235 106.956 7.03126C118.684 8.16018 127.276 18.5826 126.147 30.3104C125.018 42.0382 114.596 50.6304 102.868 49.5014C91.1404 48.3725 82.5483 37.9501 83.6772 26.2223ZM107.292 3.54896C93.6406 2.23492 81.509 12.236 80.1949 25.8871C78.8809 39.5381 88.882 51.6697 102.533 52.9837C116.184 54.2978 128.316 44.2967 129.63 30.6456C130.944 16.9946 120.943 4.86301 107.292 3.54896Z" fill="#B5551F"/>
<path d="M103.687 40.9835C110.711 41.6596 116.953 36.5137 117.63 29.4898C118.306 22.4659 113.16 16.2238 106.136 15.5477C99.112 14.8716 92.8699 20.0175 92.1937 27.0414C91.5176 34.0653 96.6635 40.3074 103.687 40.9835Z" fill="#FFA7A7"/>
<path d="M103.687 40.9835C110.711 41.6596 116.953 36.5137 117.63 29.4898C118.306 22.4659 113.16 16.2238 106.136 15.5477C99.112 14.8716 92.8699 20.0175 92.1937 27.0414C91.5176 34.0653 96.6635 40.3074 103.687 40.9835Z" fill="#FAB7B7"/>
<path d="M94.021 63.8685C99.4824 70.3693 115.339 66.0369 129.438 54.192C143.537 42.347 150.54 27.4749 145.078 20.9742C139.617 14.4735 123.76 18.8058 109.661 30.6508C95.5618 42.4957 88.5596 57.3678 94.021 63.8685Z" fill="#CD7434"/>
<path d="M154.722 187.569C127.415 190.346 125.353 171.724 122.653 161.117C118.925 139.643 37.925 140.734 65.6665 211.161C69.3692 223.889 83.1191 237.099 89.676 241.246C99.1086 247.21 123.636 261.379 162.283 241.246C191.905 254.205 205.657 232.734 204.517 220.418C202.977 203.779 182.029 184.792 154.722 187.569Z" fill="#CD7434"/>
<path fill-rule="evenodd" clip-rule="evenodd" d="M122.181 163.904C121.973 163.02 121.774 162.177 121.575 161.392L123.732 160.843C123.949 161.694 124.159 162.582 124.376 163.497C125.546 168.437 126.895 174.13 130.347 178.69C134.327 183.945 141.247 187.82 154.609 186.461C168.553 185.043 180.888 189.182 189.94 195.814C198.965 202.428 204.818 211.597 205.625 220.316C206.232 226.868 202.904 235.686 195.607 241.198C188.305 246.715 177.184 248.827 162.326 242.477C143.022 252.426 127.151 253.926 114.864 252.134C102.492 250.329 93.844 245.199 89.081 242.187C85.6893 240.042 80.533 235.624 75.762 230.153C70.9957 224.689 66.5141 218.06 64.5977 211.472L66.7353 210.851C68.5215 216.991 72.7662 223.331 77.4398 228.69C82.1086 234.043 87.1057 238.304 90.2709 240.305C94.9405 243.258 103.273 248.194 115.185 249.931C127.081 251.666 142.64 250.224 161.769 240.259L162.241 240.013L162.729 240.226C177.248 246.578 187.65 244.42 194.265 239.422C200.965 234.36 203.942 226.284 203.409 220.521C202.675 212.6 197.284 203.956 188.624 197.61C179.99 191.284 168.198 187.317 154.835 188.676C140.889 190.094 133.126 186.047 128.573 180.034C124.808 175.062 123.341 168.829 122.181 163.904Z" fill="#B5551F"/>
<path d="M161.727 245.236C161.727 244.357 162.439 243.646 163.317 243.646H333.525C334.403 243.646 335.115 244.357 335.115 245.236V251.836C335.115 252.714 334.403 253.426 333.525 253.426H163.317C162.439 253.426 161.727 252.714 161.727 251.836V245.236Z" fill="#403D4F"/>
<path d="M214.586 240.363L263.875 148.955C264.263 148.234 265.016 147.785 265.834 147.785H382.48C384.165 147.785 385.239 149.585 384.44 151.068L335.152 242.476C334.763 243.196 334.011 243.645 333.192 243.645H216.546C214.861 243.645 213.786 241.846 214.586 240.363Z" fill="#3D3461"/>
<path d="M378.521 153.08L383.743 148.882L387.328 153.34L382.106 157.538L378.521 153.08Z" fill="#3D3461"/>
<path d="M215.301 242.546L220.522 238.348L224.107 242.806L218.885 247.004L215.301 242.546Z" fill="#3D3461"/>
<path d="M218.188 244.845L267.476 153.437C267.865 152.717 268.617 152.268 269.436 152.268H386.082C387.767 152.268 388.841 154.067 388.041 155.551L338.754 246.958C338.365 247.679 337.613 248.128 336.794 248.128H220.147C218.462 248.128 217.388 246.329 218.188 244.845Z" fill="#6B6097"/>
<path d="M305.674 202.608C305.369 200.571 306.268 195.752 310.196 196.69C313.42 197.46 316.356 202.32 311.207 203.956C307.088 205.265 306.059 203.699 305.674 202.608Z" fill="#FFDF8B"/>
<path d="M304.632 199.214C304.087 200.149 303.106 200.593 302.441 200.205C301.775 199.818 301.678 198.745 302.224 197.81C302.769 196.874 303.75 196.431 304.415 196.818C305.08 197.206 305.177 198.279 304.632 199.214Z" fill="#FFDF8B"/>
<path d="M307.04 194.877C306.495 195.812 305.514 196.256 304.849 195.868C304.184 195.48 304.087 194.408 304.632 193.472C305.177 192.537 306.158 192.093 306.823 192.481C307.489 192.869 307.586 193.941 307.04 194.877Z" fill="#FFDF8B"/>
<path d="M311.058 193.885C310.513 194.821 309.531 195.265 308.866 194.877C308.201 194.489 308.104 193.416 308.649 192.481C309.195 191.546 310.176 191.102 310.841 191.49C311.506 191.877 311.603 192.95 311.058 193.885Z" fill="#FFDF8B"/>
<path d="M314.597 195.289C314.052 196.225 313.07 196.669 312.405 196.281C311.74 195.893 311.643 194.821 312.188 193.885C312.734 192.95 313.715 192.506 314.38 192.894C315.045 193.281 315.142 194.354 314.597 195.289Z" fill="#FFDF8B"/>
</svg>
